<svg width="250" height="50" fill="none" xmlns="http://www.w3.org/2000/svg" viewBox="0 0 4054.66 641.03"><path d="M1659.41,706.29l-4.56,38.78a182.06,182.06,0,0,1,36.49,9.12c11.4,4.56,11.4,4.56,20.53,11.41,4.56,4.56,22.81,11.4,29.65,11.4,13.68,2.28,31.93-34.21,31.93-34.21S1739.24,704,1659.41,706.29Z" transform="translate(-465.01 -293.46)" fill="#8257e5"/><path d="M699.17,856.83,635.31,850S614.78,879.64,592,879.64c-20.53,0-25.09-2.28-25.09-2.28s-18.25,25.09-18.25,36.49,0,20.53,20.53,20.53C592,936.66,653.55,902.45,699.17,856.83Z" transform="translate(-465.01 -293.46)" fill="#8257e5"/><path d="M1739.24,387c0,11.41-11.41,11.41-11.41,11.41-6.84,0-11.4-4.56-11.4-11.41s4.56-11.4,11.4-11.4S1739.24,380.13,1739.24,387ZM1737,790.69c-47.9-31.94-93.52-27.38-100.36-31.94,0,0,6.84-29.65,9.12-43.33s-2.28-136.85,31.93-171.07,38.78-27.37,150.54-57c54.74-27.37,59.3-63.86,59.3-63.86s-102.64-18.25-125.44-34.21c-20.53-13.69-20.53-25.09-20.53-25.09s-9.13-22.81-50.18-27.37-75.27-9.13-93.52,4.56c-50.17-11.41-187-41.06-214.4-47.9a4.9,4.9,0,0,0-4.56,4.56l-2.28,50.18L1584.14,355l-4.56,4.56-241.77-9.12s13.68,61.58,73,63.86c57,2.29,102.64-18.24,102.64-18.24s13.69-9.13,36.5-9.13c-36.5,50.18-47.9,120.89-114,175.63-123.16,91.23-301.07,120.89-625,86.67C578.28,626.46,626.18,482.77,646.71,444c-157.38,125.44,61.58,223.52,61.58,223.52-6.84,20.53-4.56,63.86-52.46,89-29.65,13.69-57-11.4-68.42-4.56-9.13,4.56-47.9,107.2-95.8,75.27-36.49,20.53-29.65,57-13.68,63.86,11.4,6.84,20.52,9.13,38.77,0,38.78-18.24,91.24-57,91.24-57l66.14,4.56c79.83,9.13,104.92,6.85,123.17,9.13s27.37,11.4,182.46,38.77c0,0,75.27,9.12,100.36,11.41S1237.45,907,1287.63,907c191.59,2.28,298.79-95.8,301.07-98.08l9.12-9.12c4.57,2.28,47.9,11.4,57,16s16,16,38.77,16c4.56,0,6.84,0,9.12-2.28C1716.43,824.9,1725.55,806.65,1737,790.69Z" transform="translate(-465.01 -293.46)" fill="#8257e5"/><path d="M2369.29,385.07a27.41,27.41,0,0,1,11.7,3,24.08,24.08,0,0,1,9.9,8.4l159,240-21.6-.6,160.8-239.4q8.4-11.39,20.4-11.4a27.24,27.24,0,0,1,17.1,7.5,22.3,22.3,0,0,1,7.5,17.1v371.4a23.69,23.69,0,0,1-7.2,17.4,24.42,24.42,0,0,1-18,7.2q-11.4,0-18.3-7.2a24.22,24.22,0,0,1-6.9-17.4V455.87l15,2.4-141.6,215.4a29.31,29.31,0,0,1-8.7,7.8,26.18,26.18,0,0,1-21.9,0,22.53,22.53,0,0,1-8.4-7.8l-139.8-214.8,12.6-16.2v338.4a24.82,24.82,0,0,1-6.6,17.4,23.2,23.2,0,0,1-33.6,0,24.82,24.82,0,0,1-6.6-17.4V409.67a25.1,25.1,0,0,1,25.2-24.6Z" transform="translate(-465.01 -293.46)" fill="#494d4b"/><path d="M3077.29,492.47q10.8,0,17.4,6.9a23.82,23.82,0,0,1,6.6,17.1v264.6a24.26,24.26,0,0,1-6.9,17.4,22.76,22.76,0,0,1-17.1,7.2q-10.8,0-17.4-7.2a24.77,24.77,0,0,1-6.6-17.4v-57l11.4-1.2q0,13.82-9,29.1a116.74,116.74,0,0,1-24.6,28.8,132.32,132.32,0,0,1-36.9,22.2,118.9,118.9,0,0,1-45.3,8.7q-41.4,0-73.8-21.3t-51.3-57.9q-18.9-36.59-18.9-83.4,0-47.39,18.9-83.7t51.3-57q32.4-20.7,72-20.7a134.61,134.61,0,0,1,48,8.4,126.5,126.5,0,0,1,38.7,22.8,113.27,113.27,0,0,1,25.8,31.8q9.28,17.42,9.3,34.8l-15.6-3.6v-65.4a23.74,23.74,0,0,1,6.6-17.1Q3066.48,492.48,3077.29,492.47Zm-123.6,274.8q30,0,53.1-15.6t36-42.3q12.89-26.68,12.9-60.3,0-33-12.9-59.4t-36-42q-23.11-15.6-53.1-15.6-29.42,0-52.5,15.3t-36.3,41.7q-13.21,26.41-13.2,60t13.2,60.3q13.18,26.7,36.3,42.3T2953.69,767.27Z" transform="translate(-465.01 -293.46)" fill="#494d4b"/><path d="M3324.48,811.67q-48,0-84-20.4a145.34,145.34,0,0,1-56.1-56.1q-20.1-35.68-20.1-82.5,0-52.2,20.7-89.1t54-56.4q33.3-19.49,70.5-19.5a143.25,143.25,0,0,1,53.7,10.2,137.09,137.09,0,0,1,45.6,30,151.09,151.09,0,0,1,32.1,46.8q12,27,12.6,61.2a22.18,22.18,0,0,1-7.8,15.9,24.72,24.72,0,0,1-16.8,6.3h-237l-10.8-41.4h231l-9.6,8.4v-13.2q-2.4-24.6-16.5-42.3a97.53,97.53,0,0,0-76.5-36.9,101.5,101.5,0,0,0-35.7,6.6,90.3,90.3,0,0,0-31.8,20.4q-14.1,13.82-22.5,36t-8.4,53.4q0,34.8,14.1,61.2a106.52,106.52,0,0,0,39.3,41.7q25.2,15.3,58.2,15.3,21.6,0,36.9-5.4a107.72,107.72,0,0,0,26.7-13.5,124,124,0,0,0,19.2-16.5q7.8-5.4,15-5.4a20.39,20.39,0,0,1,15,6,19.64,19.64,0,0,1,6,14.4q0,10.21-10.2,18.6-16.8,18.6-45.6,32.4A139.84,139.84,0,0,1,3324.48,811.67Z" transform="translate(-465.01 -293.46)" fill="#494d4b"/><path d="M3498.48,756.47A28.82,28.82,0,0,1,3494,740q.3-8.69,9.9-15.3a23.57,23.57,0,0,1,14.7-3.6q8.1.6,14.7,7.8a133.66,133.66,0,0,0,38.4,31.5q21.6,11.7,52.8,11.7a122.63,122.63,0,0,0,28.5-4.8,53.06,53.06,0,0,0,24.6-14.7q9.9-10.49,9.9-27.9,0-16.78-10.2-26.7t-26.7-16.2a330.8,330.8,0,0,0-35.1-11.1q-19.8-5.4-39-12a142.43,142.43,0,0,1-34.5-17.1,81.57,81.57,0,0,1-24.6-26.4q-9.3-15.88-9.3-39.3,0-27,14.7-46.8t39.3-30.6q24.6-10.8,54.6-10.8a168.41,168.41,0,0,1,35.1,3.9,135.72,135.72,0,0,1,35.7,13.2,100.41,100.41,0,0,1,30.6,25.5,24.1,24.1,0,0,1,6,15q.6,9-7.8,16.2a22.78,22.78,0,0,1-14.7,4.5,19.39,19.39,0,0,1-13.5-5.7,85.69,85.69,0,0,0-32.1-23.7q-18.9-8.1-41.7-8.1a88.58,88.58,0,0,0-27.6,4.5,55.59,55.59,0,0,0-23.1,14.1q-9.3,9.6-9.3,27,.6,16.2,10.8,26.4t27.6,16.5q17.4,6.3,38.4,12.3,19.2,4.82,36.9,11.1a131.63,131.63,0,0,1,32.1,16.5,73.93,73.93,0,0,1,22.8,26.1q8.4,15.9,8.4,39.9,0,27.6-15.6,47.7t-41.1,30.6a143,143,0,0,1-54.9,10.5,183.22,183.22,0,0,1-65.4-12.3Q3521.88,787.08,3498.48,756.47Z" transform="translate(-465.01 -293.46)" fill="#494d4b"/><path d="M3782.88,497.27h141a21.06,21.06,0,0,1,15.9,6.6,22.61,22.61,0,0,1,6.3,16.2,20.83,20.83,0,0,1-6.3,15.3,21.57,21.57,0,0,1-15.9,6.3h-141a22.27,22.27,0,0,1-15.9-6.6,20.89,20.89,0,0,1-6.9-15.6,20.62,20.62,0,0,1,6.9-15.9A22.87,22.87,0,0,1,3782.88,497.27Zm63-81.6a21.8,21.8,0,0,1,16.8,7.2,24.83,24.83,0,0,1,6.6,17.4v289.2q0,14.4,4.2,21.6a22,22,0,0,0,11.1,9.9,36.82,36.82,0,0,0,13.5,2.7,24.48,24.48,0,0,0,10.5-2.1,24.6,24.6,0,0,1,10.5-2.1c4,0,7.7,1.9,11.1,5.7s5.1,8.7,5.1,14.7q0,10.8-12.6,18.3a54,54,0,0,1-28.2,7.5q-8.42,0-20.7-1.2a62.67,62.67,0,0,1-24.3-7.8q-12-6.6-20.1-21.9t-8.1-42.9V440.27a24.58,24.58,0,0,1,24.6-24.6Z" transform="translate(-465.01 -293.46)" fill="#494d4b"/><path d="M4030.68,805.67a22.7,22.7,0,0,1-17.1-7.2,24.18,24.18,0,0,1-6.9-17.4v-261q0-10.8,6.9-17.7a23.23,23.23,0,0,1,17.1-6.9q10.8,0,17.4,6.9t6.6,17.7v78.6l-7.2-12.6a131.29,131.29,0,0,1,12.9-36.3,126.74,126.74,0,0,1,23.7-31.8,109,109,0,0,1,33-22.2,101,101,0,0,1,40.8-8.1,48.44,48.44,0,0,1,24.3,6.3q11.08,6.3,11.1,17.7,0,12.6-6.6,18.9a21.18,21.18,0,0,1-15,6.3,33.1,33.1,0,0,1-15-3.6q-7.2-3.6-18-3.6-15,0-29.7,8.4a100,100,0,0,0-27,23.1,121.74,121.74,0,0,0-19.8,33.6,108.59,108.59,0,0,0-7.5,40.5v145.8a24.26,24.26,0,0,1-6.9,17.4A22.76,22.76,0,0,1,4030.68,805.67Z" transform="translate(-465.01 -293.46)" fill="#494d4b"/><path d="M4519.67,649.67q0,46.8-20.4,83.4a152.09,152.09,0,0,1-55.5,57.6q-35.1,21-79.5,21-43.8,0-79.2-21a153.62,153.62,0,0,1-56.1-57.6q-20.7-36.59-20.7-83.4t20.7-83.4a153.76,153.76,0,0,1,56.1-57.6q35.4-21,79.2-21,44.4,0,79.5,21a152.23,152.23,0,0,1,55.5,57.6Q4519.67,602.87,4519.67,649.67Zm-48,0q0-34.78-14.1-60.9a109.4,109.4,0,0,0-38.4-41.4q-24.3-15.3-54.9-15.3a101.32,101.32,0,0,0-54.6,15.3,108.61,108.61,0,0,0-38.7,41.4q-14.1,26.1-14.1,60.9,0,34.2,14.1,60.6a108,108,0,0,0,38.7,41.7,101.32,101.32,0,0,0,54.6,15.3q30.6,0,54.9-15.3a108.75,108.75,0,0,0,38.4-41.7Q4471.67,683.87,4471.67,649.67Z" transform="translate(-465.01 -293.46)" fill="#494d4b"/></svg>